<svg width="144" height="144" viewBox="0 0 144 144" fill="none" xmlns="http://www.w3.org/2000/svg">
<g clip-path="url(#clip0_3168_137)">
<g filter="url(#filter0_d_3168_137)">
<path d="M116 4H28C19.1634 4 12 11.1634 12 20V108C12 116.837 19.1634 124 28 124H116C124.837 124 132 116.837 132 108V20C132 11.1634 124.837 4 116 4Z" fill="#F5FAFF"/>
<g clip-path="url(#clip1_3168_137)">
<path d="M105.833 96.6667H98.8333V58.1667C98.8333 57.8572 98.7104 57.5605 98.4916 57.3417C98.2728 57.1229 97.9761 57 97.6667 57H81.3333V30.1667C81.3333 29.8572 81.2104 29.5605 80.9916 29.3417C80.7728 29.1229 80.4761 29 80.1667 29H49.8333C49.5239 29 49.2272 29.1229 49.0084 29.3417C48.7896 29.5605 48.6667 29.8572 48.6667 30.1667V96.6667H38.1667C37.8572 96.6667 37.5605 96.7896 37.3417 97.0084C37.1229 97.2272 37 97.5239 37 97.8333C37 98.1428 37.1229 98.4395 37.3417 98.6583C37.5605 98.8771 37.8572 99 38.1667 99H105.833C106.143 99 106.439 98.8771 106.658 98.6583C106.877 98.4395 107 98.1428 107 97.8333C107 97.5239 106.877 97.2272 106.658 97.0084C106.439 96.7896 106.143 96.6667 105.833 96.6667ZM61.5 96.6667H56.8333V86.1667C56.8333 85.8572 56.9562 85.5605 57.175 85.3417C57.3938 85.1229 57.6906 85 58 85H60.3333C60.6428 85 60.9395 85.1229 61.1583 85.3417C61.3771 85.5605 61.5 85.8572 61.5 86.1667V96.6667ZM66.1667 58.1667V96.6667H63.8333V86.1667C63.8333 84.2336 62.2664 82.6667 60.3333 82.6667H58C56.067 82.6667 54.5 84.2336 54.5 86.1667V96.6667H51V31.3333H79V57H67.3333C67.0239 57 66.7272 57.1229 66.5084 57.3417C66.2896 57.5605 66.1667 57.8572 66.1667 58.1667ZM96.5 96.6667H68.5V59.3333H96.5V96.6667Z" fill="#00539E"/>
<path d="M74.3333 45.3307H67.3333C67.0239 45.3307 66.7272 45.4536 66.5084 45.6724C66.2896 45.8912 66.1667 46.188 66.1667 46.4974V53.4974C66.1667 53.8068 66.2896 54.1036 66.5084 54.3224C66.7272 54.5411 67.0239 54.6641 67.3333 54.6641H74.3333C74.6428 54.6641 74.9395 54.5411 75.1583 54.3224C75.3771 54.1036 75.5 53.8068 75.5 53.4974V46.4974C75.5 46.188 75.3771 45.8912 75.1583 45.6724C74.9395 45.4536 74.6428 45.3307 74.3333 45.3307ZM73.1667 52.3307H68.5V47.6641H73.1667V52.3307ZM74.3333 33.6641H67.3333C67.0239 33.6641 66.7272 33.787 66.5084 34.0058C66.2896 34.2246 66.1667 34.5213 66.1667 34.8307V41.8307C66.1667 42.1401 66.2896 42.4369 66.5084 42.6557C66.7272 42.8745 67.0239 42.9974 67.3333 42.9974H74.3333C74.6428 42.9974 74.9395 42.8745 75.1583 42.6557C75.3771 42.4369 75.5 42.1401 75.5 41.8307V34.8307C75.5 34.5213 75.3771 34.2246 75.1583 34.0058C74.9395 33.787 74.6428 33.6641 74.3333 33.6641ZM73.1667 40.6641H68.5V35.9974H73.1667V40.6641ZM62.6667 45.3307H55.6667C55.3572 45.3307 55.0605 45.4536 54.8417 45.6724C54.6229 45.8912 54.5 46.188 54.5 46.4974V53.4974C54.5 53.8068 54.6229 54.1036 54.8417 54.3224C55.0605 54.5411 55.3572 54.6641 55.6667 54.6641H62.6667C62.9761 54.6641 63.2728 54.5411 63.4916 54.3224C63.7104 54.1036 63.8333 53.8068 63.8333 53.4974V46.4974C63.8333 46.188 63.7104 45.8912 63.4916 45.6724C63.2728 45.4536 62.9761 45.3307 62.6667 45.3307ZM61.5 52.3307H56.8333V47.6641H61.5V52.3307ZM62.6667 33.6641H55.6667C55.3572 33.6641 55.0605 33.787 54.8417 34.0058C54.6229 34.2246 54.5 34.5213 54.5 34.8307V41.8307C54.5 42.1401 54.6229 42.4369 54.8417 42.6557C55.0605 42.8745 55.3572 42.9974 55.6667 42.9974H62.6667C62.9761 42.9974 63.2728 42.8745 63.4916 42.6557C63.7104 42.4369 63.8333 42.1401 63.8333 41.8307V34.8307C63.8333 34.5213 63.7104 34.2246 63.4916 34.0058C63.2728 33.787 62.9761 33.6641 62.6667 33.6641ZM61.5 40.6641H56.8333V35.9974H61.5V40.6641ZM62.6667 56.9974H55.6667C55.3572 56.9974 55.0605 57.1203 54.8417 57.3391C54.6229 57.5579 54.5 57.8546 54.5 58.1641V65.1641C54.5 65.4735 54.6229 65.7702 54.8417 65.989C55.0605 66.2078 55.3572 66.3307 55.6667 66.3307H62.6667C62.9761 66.3307 63.2728 66.2078 63.4916 65.989C63.7104 65.7702 63.8333 65.4735 63.8333 65.1641V58.1641C63.8333 57.8546 63.7104 57.5579 63.4916 57.3391C63.2728 57.1203 62.9761 56.9974 62.6667 56.9974ZM61.5 63.9974H56.8333V59.3307H61.5V63.9974ZM62.6667 68.6641H55.6667C55.3572 68.6641 55.0605 68.787 54.8417 69.0058C54.6229 69.2246 54.5 69.5213 54.5 69.8307V76.8307C54.5 77.1402 54.6229 77.4369 54.8417 77.6557C55.0605 77.8745 55.3572 77.9974 55.6667 77.9974H62.6667C62.9761 77.9974 63.2728 77.8745 63.4916 77.6557C63.7104 77.4369 63.8333 77.1402 63.8333 76.8307V69.8307C63.8333 69.5213 63.7104 69.2246 63.4916 69.0058C63.2728 68.787 62.9761 68.6641 62.6667 68.6641ZM61.5 75.6641H56.8333V70.9974H61.5V75.6641ZM84.8333 82.6641H91.8333C92.1428 82.6641 92.4395 82.5412 92.6583 82.3224C92.8771 82.1036 93 81.8068 93 81.4974V74.4974C93 74.188 92.8771 73.8912 92.6583 73.6724C92.4395 73.4536 92.1428 73.3307 91.8333 73.3307H84.8333C84.5239 73.3307 84.2272 73.4536 84.0084 73.6724C83.7896 73.8912 83.6667 74.188 83.6667 74.4974V81.4974C83.6667 81.8068 83.7896 82.1036 84.0084 82.3224C84.2272 82.5412 84.5239 82.6641 84.8333 82.6641ZM86 75.6641H90.6667V80.3307H86V75.6641ZM84.8333 70.9974H91.8333C92.1428 70.9974 92.4395 70.8745 92.6583 70.6557C92.8771 70.4369 93 70.1402 93 69.8307V62.8307C93 62.5213 92.8771 62.2246 92.6583 62.0058C92.4395 61.787 92.1428 61.6641 91.8333 61.6641H84.8333C84.5239 61.6641 84.2272 61.787 84.0084 62.0058C83.7896 62.2246 83.6667 62.5213 83.6667 62.8307V69.8307C83.6667 70.1402 83.7896 70.4369 84.0084 70.6557C84.2272 70.8745 84.5239 70.9974 84.8333 70.9974ZM86 63.9974H90.6667V68.6641H86V63.9974ZM84.8333 94.3307H91.8333C92.1428 94.3307 92.4395 94.2078 92.6583 93.989C92.8771 93.7702 93 93.4735 93 93.1641V86.1641C93 85.8546 92.8771 85.5579 92.6583 85.3391C92.4395 85.1203 92.1428 84.9974 91.8333 84.9974H84.8333C84.5239 84.9974 84.2272 85.1203 84.0084 85.3391C83.7896 85.5579 83.6667 85.8546 83.6667 86.1641V93.1641C83.6667 93.4735 83.7896 93.7702 84.0084 93.989C84.2272 94.2078 84.5239 94.3307 84.8333 94.3307ZM86 87.3307H90.6667V91.9974H86V87.3307ZM73.1667 82.6641H80.1667C80.4761 82.6641 80.7728 82.5412 80.9916 82.3224C81.2104 82.1036 81.3333 81.8068 81.3333 81.4974V74.4974C81.3333 74.188 81.2104 73.8912 80.9916 73.6724C80.7728 73.4536 80.4761 73.3307 80.1667 73.3307H73.1667C72.8572 73.3307 72.5605 73.4536 72.3417 73.6724C72.1229 73.8912 72 74.188 72 74.4974V81.4974C72 81.8068 72.1229 82.1036 72.3417 82.3224C72.5605 82.5412 72.8572 82.6641 73.1667 82.6641ZM74.3333 75.6641H79V80.3307H74.3333V75.6641ZM73.1667 70.9974H80.1667C80.4761 70.9974 80.7728 70.8745 80.9916 70.6557C81.2104 70.4369 81.3333 70.1402 81.3333 69.8307V62.8307C81.3333 62.5213 81.2104 62.2246 80.9916 62.0058C80.7728 61.787 80.4761 61.6641 80.1667 61.6641H73.1667C72.8572 61.6641 72.5605 61.787 72.3417 62.0058C72.1229 62.2246 72 62.5213 72 62.8307V69.8307C72 70.1402 72.1229 70.4369 72.3417 70.6557C72.5605 70.8745 72.8572 70.9974 73.1667 70.9974ZM74.3333 63.9974H79V68.6641H74.3333V63.9974ZM73.1667 94.3307H80.1667C80.4761 94.3307 80.7728 94.2078 80.9916 93.989C81.2104 93.7702 81.3333 93.4735 81.3333 93.1641V86.1641C81.3333 85.8546 81.2104 85.5579 80.9916 85.3391C80.7728 85.1203 80.4761 84.9974 80.1667 84.9974H73.1667C72.8572 84.9974 72.5605 85.1203 72.3417 85.3391C72.1229 85.5579 72 85.8546 72 86.1641V93.1641C72 93.4735 72.1229 93.7702 72.3417 93.989C72.5605 94.2078 72.8572 94.3307 73.1667 94.3307ZM74.3333 87.3307H79V91.9974H74.3333V87.3307Z" fill="#00539E"/>
</g>
</g>
</g>
<defs>
<filter id="filter0_d_3168_137" x="-4" y="-4" width="152" height="152" filterUnits="userSpaceOnUse" color-interpolation-filters="sRGB">
<feFlood flood-opacity="0" result="BackgroundImageFix"/>
<feColorMatrix in="SourceAlpha" type="matrix" values="0 0 0 0 0 0 0 0 0 0 0 0 0 0 0 0 0 0 127 0" result="hardAlpha"/>
<feOffset dy="8"/>
<feGaussianBlur stdDeviation="8"/>
<feComposite in2="hardAlpha" operator="out"/>
<feColorMatrix type="matrix" values="0 0 0 0 0.0823529 0 0 0 0 0.0823529 0 0 0 0 0.0823529 0 0 0 0.1 0"/>
<feBlend mode="normal" in2="BackgroundImageFix" result="effect1_dropShadow_3168_137"/>
<feBlend mode="normal" in="SourceGraphic" in2="effect1_dropShadow_3168_137" result="shape"/>
</filter>
<clipPath id="clip0_3168_137">
<rect width="144" height="144" fill="white"/>
</clipPath>
<clipPath id="clip1_3168_137">
<rect width="70" height="70" fill="white" transform="translate(37 29)"/>
</clipPath>
</defs>
</svg>
