<svg width="144" height="144" viewBox="0 0 144 144" fill="none" xmlns="http://www.w3.org/2000/svg">
<g clip-path="url(#clip0_3168_86)">
<g filter="url(#filter0_d_3168_86)">
<path d="M116 4H28C19.1634 4 12 11.1634 12 20V108C12 116.837 19.1634 124 28 124H116C124.837 124 132 116.837 132 108V20C132 11.1634 124.837 4 116 4Z" fill="#F5FAFF"/>
<g clip-path="url(#clip1_3168_86)">
<path d="M86.3017 63.5413C86.2215 63.2011 86.0555 62.887 85.8196 62.629C85.5837 62.3709 85.2857 62.1776 84.9539 62.0674L74.8922 58.7128L82.038 44.4215C82.4865 43.5223 82.2182 42.4288 81.403 41.84C80.584 41.2532 79.4625 41.3413 78.7534 42.0542L58.2456 62.562C57.9985 62.8092 57.8186 63.1153 57.723 63.4514C57.6273 63.7875 57.619 64.1424 57.6989 64.4826C57.7791 64.8229 57.945 65.137 58.1809 65.395C58.4169 65.653 58.7149 65.8464 59.0467 65.9566L69.1083 69.3111L61.9626 83.6025C61.514 84.5017 61.7824 85.5952 62.5975 86.184C63.4139 86.769 64.5332 86.6834 65.2471 85.9698L85.7549 65.462C86.002 65.2148 86.1819 64.9087 86.2776 64.5726C86.3733 64.2365 86.3816 63.8815 86.3017 63.5413Z" fill="#00539E"/>
<path d="M72 29C61.5916 29 51.7603 33.8407 45.2031 41.6504V39.3906C45.2031 38.2571 44.2859 37.3398 43.1523 37.3398C42.0188 37.3398 41.1016 38.2571 41.1016 39.3906V48.1025C41.1016 50.0596 43.6295 50.3397 43.1523 50.1533C43.1945 50.1533 43.2364 50.1512 43.2785 50.1493L51.4817 49.6406C52.6131 49.5704 53.4724 48.5971 53.4023 47.4676C53.3321 46.338 52.3449 45.4869 51.2293 45.5469L47.0738 45.8053C52.8297 37.9757 62.1426 33.1016 72 33.1016C88.963 33.1016 102.898 47.037 102.898 64C102.898 65.1335 103.816 66.0508 104.949 66.0508C106.083 66.0508 107 65.1335 107 64C107 44.776 91.224 29 72 29ZM100.721 77.8507L92.5183 78.3594C91.3869 78.4296 90.5276 79.4029 90.5977 80.5324C90.6679 81.662 91.6772 82.5232 92.7707 82.4531L96.9262 82.1947C91.1703 90.0243 81.8574 94.8984 72 94.8984C55.037 94.8984 41.1016 80.963 41.1016 64C41.1016 62.8665 40.1843 61.9492 39.0508 61.9492C37.9172 61.9492 37 62.8665 37 64C37 83.224 52.776 99 72 99C82.4084 99 92.2397 94.1593 98.7969 86.3496V88.6094C98.7969 89.7429 99.7141 90.6602 100.848 90.6602C101.981 90.6602 102.898 89.7429 102.898 88.6094V79.8975C102.898 78.771 101.818 77.7889 100.721 77.8507Z" fill="#00539E"/>
</g>
</g>
</g>
<defs>
<filter id="filter0_d_3168_86" x="-4" y="-4" width="152" height="152" filterUnits="userSpaceOnUse" color-interpolation-filters="sRGB">
<feFlood flood-opacity="0" result="BackgroundImageFix"/>
<feColorMatrix in="SourceAlpha" type="matrix" values="0 0 0 0 0 0 0 0 0 0 0 0 0 0 0 0 0 0 127 0" result="hardAlpha"/>
<feOffset dy="8"/>
<feGaussianBlur stdDeviation="8"/>
<feComposite in2="hardAlpha" operator="out"/>
<feColorMatrix type="matrix" values="0 0 0 0 0.0823529 0 0 0 0 0.0823529 0 0 0 0 0.0823529 0 0 0 0.1 0"/>
<feBlend mode="normal" in2="BackgroundImageFix" result="effect1_dropShadow_3168_86"/>
<feBlend mode="normal" in="SourceGraphic" in2="effect1_dropShadow_3168_86" result="shape"/>
</filter>
<clipPath id="clip0_3168_86">
<rect width="144" height="144" fill="white"/>
</clipPath>
<clipPath id="clip1_3168_86">
<rect width="70" height="70" fill="white" transform="translate(37 29)"/>
</clipPath>
</defs>
</svg>
