<svg width="250" height="250" viewBox="0 0 250 250" fill="none" xmlns="http://www.w3.org/2000/svg">
<path fill-rule="evenodd" clip-rule="evenodd" d="M160 122C160 139.67 145.45 154 127.5 154C109.551 154 95 139.67 95 122C95 104.33 109.551 90 127.5 90C145.45 90 160 104.33 160 122Z" stroke="#151515" stroke-width="8.02083" stroke-miterlimit="10" stroke-linecap="round" stroke-linejoin="round"/>
<path fill-rule="evenodd" clip-rule="evenodd" d="M147 122.5C147 133.27 138.27 142 127.5 142C116.73 142 108 133.27 108 122.5C108 111.73 116.73 103 127.5 103C138.27 103 147 111.73 147 122.5Z" stroke="#151515" stroke-width="8.02083" stroke-miterlimit="10" stroke-linecap="round" stroke-linejoin="round"/>
<path d="M96.3472 132.61C78.6352 134.5 61.2222 138.57 44.4942 144.72C18.6782 154.54 11.2803 141.34 14.8363 118.04C18.3933 94.7298 24.3623 51.7238 65.2293 65.7518C106.095 79.7798 106 95.2998 106 95.2998" stroke="#151515" stroke-width="8.02083" stroke-miterlimit="10" stroke-linecap="round" stroke-linejoin="round"/>
<path d="M153.749 144C164.536 158.35 177.029 171.33 190.953 182.67C212.776 199.99 205.182 213.21 183.231 222.07C161.279 230.94 121.062 247.94 112.09 205.3C103.117 162.66 116.544 154.79 116.544 154.79" stroke="#151515" stroke-width="8.02083" stroke-miterlimit="10" stroke-linecap="round" stroke-linejoin="round"/>
<path d="M137 90.5996C145.959 75.1296 152.993 58.6226 157.946 41.4566C165.269 14.7536 180.363 16.6316 197.151 33.1186C213.94 49.6046 245.31 79.7796 209.687 104.67C174.063 129.56 161.527 120.33 161.527 120.33" stroke="#151515" stroke-width="8.02083" stroke-miterlimit="10" stroke-linecap="round" stroke-linejoin="round"/>
<path d="M101 227C72.705 219.98 48.521 201.93 34 177" stroke="#151515" stroke-width="8.02083" stroke-miterlimit="10" stroke-linecap="round" stroke-linejoin="round"/>
<path d="M232.364 104C233.464 110.37 234.012 116.83 234 123.31C234.016 139.47 230.597 155.43 224 170" stroke="#151515" stroke-width="8.02083" stroke-miterlimit="10" stroke-linecap="round" stroke-linejoin="round"/>
<path d="M55 44.0001C74.813 26.5911 100.597 16.9661 127.327 17.0001C130.551 17.0001 133.776 17.0001 137 17.4071" stroke="#151515" stroke-width="8.02083" stroke-miterlimit="10" stroke-linecap="round" stroke-linejoin="round"/>
<path d="M98 199C90.893 196.61 84.16 193.25 78 189" stroke="#151515" stroke-width="8.02083" stroke-miterlimit="10" stroke-linecap="round" stroke-linejoin="round"/>
<path d="M207.001 124C206.991 129.04 206.321 134.06 205 139" stroke="#151515" stroke-width="8.02083" stroke-miterlimit="10" stroke-linecap="round" stroke-linejoin="round"/>
<path d="M83 58C89.462 53.656 96.539 50.286 104 48" stroke="#151515" stroke-width="8.02083" stroke-miterlimit="10" stroke-linecap="round" stroke-linejoin="round"/>
</svg>
