<svg width="144" height="144" viewBox="0 0 144 144" fill="none" xmlns="http://www.w3.org/2000/svg">
<g clip-path="url(#clip0_3168_110)">
<g filter="url(#filter0_d_3168_110)">
<path d="M116 4H28C19.1634 4 12 11.1634 12 20V108C12 116.837 19.1634 124 28 124H116C124.837 124 132 116.837 132 108V20C132 11.1634 124.837 4 116 4Z" fill="#F5FAFF"/>
<path d="M101.196 67.4496H42.809C40.9571 67.4496 39.4504 65.943 39.4504 64.091C39.4504 62.2391 40.9569 60.7326 42.809 60.7326H101.196C103.048 60.7326 104.555 62.2392 104.555 64.0912C104.555 65.9431 103.048 67.4496 101.196 67.4496ZM42.809 62.2598C41.7992 62.2598 40.9777 63.0814 40.9777 64.0912C40.9777 65.101 41.7992 65.9225 42.809 65.9225H101.196C102.206 65.9225 103.028 65.101 103.028 64.0912C103.028 63.0814 102.206 62.2598 101.196 62.2598H42.809ZM72.0026 57.0698C62.0063 57.0698 51.8632 55.5059 41.855 52.4217C40.9799 52.152 40.2639 51.5562 39.8394 50.7441C39.4145 49.9314 39.3337 49.0029 39.6118 48.1294C40.1761 46.3575 42.0829 45.3608 43.8626 45.9077C62.535 51.6454 81.4703 51.6454 100.143 45.9077C101.923 45.3608 103.829 46.3575 104.393 48.1294C104.672 49.0029 104.591 49.9316 104.166 50.7441C103.741 51.5562 103.025 52.152 102.15 52.4218C92.1418 55.506 81.9988 57.0698 72.0026 57.0698ZM42.8639 47.2847C42.0654 47.2847 41.3206 47.7968 41.0672 48.5927C40.991 48.8295 40.9628 49.0793 40.9844 49.3272C41.006 49.5751 41.0768 49.8162 41.1928 50.0363C41.3072 50.2568 41.4645 50.4523 41.6554 50.6113C41.8464 50.7702 42.0671 50.8894 42.3048 50.962C52.1671 54.0014 62.1589 55.5424 72.0026 55.5424C81.8462 55.5424 91.838 54.0014 101.7 50.962C101.938 50.8894 102.159 50.7702 102.35 50.6112C102.541 50.4522 102.698 50.2567 102.813 50.0362C102.928 49.816 102.999 49.575 103.021 49.3271C103.042 49.0792 103.014 48.8295 102.938 48.5927C102.627 47.6151 101.574 47.0658 100.591 47.3674C81.6211 53.1966 62.3839 53.1966 43.4139 47.3674C43.2313 47.3114 43.0461 47.2847 42.8639 47.2847ZM101.138 82.4244C100.8 82.4245 100.465 82.374 100.143 82.2746C81.47 76.5369 62.535 76.5369 43.8626 82.2746C42.0825 82.8215 40.176 81.8246 39.6118 80.0528C39.3336 79.1795 39.4144 78.2509 39.8392 77.4383C40.2638 76.6261 40.9796 76.0302 41.8549 75.7606C51.8635 72.6762 62.0066 71.1124 72.0026 71.1124C81.9986 71.1124 92.1417 72.6762 102.15 75.7606C103.025 76.0304 103.741 76.6263 104.166 77.4385C104.591 78.2512 104.672 79.1796 104.393 80.0531C103.934 81.4956 102.584 82.4244 101.138 82.4244ZM72.0026 76.4429C81.5555 76.4429 91.1051 77.8998 100.591 80.8148C101.574 81.1166 102.627 80.5671 102.938 79.5894C103.014 79.3526 103.042 79.1029 103.021 78.8551C102.999 78.6072 102.928 78.3662 102.813 78.146C102.698 77.9255 102.541 77.73 102.35 77.571C102.159 77.412 101.938 77.2927 101.7 77.2201C91.8378 74.1808 81.846 72.6398 72.0026 72.6398C62.1592 72.6398 52.1674 74.1808 42.3048 77.2202C42.0671 77.2928 41.8463 77.412 41.6554 77.571C41.4644 77.73 41.3071 77.9255 41.1927 78.146C41.0767 78.3662 41.0059 78.6072 40.9843 78.8551C40.9628 79.1029 40.9909 79.3526 41.067 79.5894C41.3783 80.567 42.431 81.1166 43.4139 80.8148C52.8979 77.9005 62.4519 76.4429 72.0026 76.4429Z" fill="#00539E"/>
<path d="M72.0006 45.8686C71.884 45.8686 71.7689 45.8419 71.6642 45.7905C71.5595 45.7391 71.4679 45.6644 71.3966 45.5722L65.5579 38.0232C65.4707 37.9103 65.4168 37.7751 65.4024 37.6331C65.3881 37.4911 65.4138 37.3479 65.4767 37.2198C65.5396 37.0916 65.6371 36.9837 65.7583 36.9081C65.8794 36.8326 66.0192 36.7926 66.162 36.7925H68.7599V32.3027C68.7599 32.1002 68.8403 31.9059 68.9835 31.7627C69.1267 31.6195 69.321 31.5391 69.5235 31.5391H74.4779C74.6804 31.5391 74.8746 31.6195 75.0178 31.7627C75.161 31.9059 75.2415 32.1002 75.2415 32.3027V36.7924H77.8394C77.9822 36.7923 78.1221 36.8323 78.2433 36.9078C78.3645 36.9833 78.4621 37.0913 78.525 37.2195C78.5879 37.3477 78.6136 37.4909 78.5992 37.633C78.5848 37.775 78.5308 37.9102 78.4434 38.0231L72.6047 45.572C72.5333 45.6643 72.4418 45.739 72.3371 45.7904C72.2324 45.8418 72.1173 45.8686 72.0006 45.8686ZM67.718 38.3198L72.0006 43.8568L76.2832 38.3198H74.4777C74.2752 38.3198 74.081 38.2393 73.9378 38.0961C73.7945 37.9529 73.7141 37.7587 73.7141 37.5561V33.0663H70.287V37.556C70.287 37.7585 70.2066 37.9528 70.0634 38.096C69.9201 38.2392 69.7259 38.3196 69.5234 38.3196H67.718V38.3198ZM74.4779 96.4708H69.5235C69.321 96.4708 69.1267 96.3904 68.9835 96.2471C68.8403 96.1039 68.7599 95.9097 68.7599 95.7072V91.2175H66.162C66.0192 91.2175 65.8793 91.1774 65.7582 91.1019C65.637 91.0264 65.5394 90.9185 65.4766 90.7903C65.4137 90.6622 65.3879 90.5189 65.4023 90.3769C65.4167 90.2349 65.4706 90.0997 65.5579 89.9868L71.3966 82.4378C71.4679 82.3456 71.5595 82.2709 71.6642 82.2195C71.7689 82.1681 71.884 82.1414 72.0006 82.1414C72.1173 82.1414 72.2323 82.1681 72.337 82.2195C72.4418 82.2709 72.5333 82.3456 72.6047 82.4378L78.4434 89.9868C78.5307 90.0997 78.5847 90.2349 78.599 90.3769C78.6134 90.5189 78.5877 90.6622 78.5248 90.7903C78.4619 90.9185 78.3644 91.0264 78.2432 91.1019C78.122 91.1774 77.9821 91.2175 77.8394 91.2175H75.2415V95.7072C75.2415 95.9097 75.161 96.1039 75.0178 96.2471C74.8746 96.3904 74.6804 96.4708 74.4779 96.4708ZM70.2871 94.9435H73.7142V90.4539C73.7142 90.2513 73.7947 90.0571 73.9379 89.9139C74.0811 89.7707 74.2753 89.6902 74.4779 89.6902H76.2833L72.0006 84.1531L67.718 89.6902H69.5235C69.726 89.6902 69.9203 89.7707 70.0635 89.9139C70.2067 90.0571 70.2871 90.2513 70.2871 90.4539V94.9435Z" fill="#00539E"/>
</g>
</g>
<defs>
<filter id="filter0_d_3168_110" x="-4" y="-4" width="152" height="152" filterUnits="userSpaceOnUse" color-interpolation-filters="sRGB">
<feFlood flood-opacity="0" result="BackgroundImageFix"/>
<feColorMatrix in="SourceAlpha" type="matrix" values="0 0 0 0 0 0 0 0 0 0 0 0 0 0 0 0 0 0 127 0" result="hardAlpha"/>
<feOffset dy="8"/>
<feGaussianBlur stdDeviation="8"/>
<feComposite in2="hardAlpha" operator="out"/>
<feColorMatrix type="matrix" values="0 0 0 0 0.0823529 0 0 0 0 0.0823529 0 0 0 0 0.0823529 0 0 0 0.1 0"/>
<feBlend mode="normal" in2="BackgroundImageFix" result="effect1_dropShadow_3168_110"/>
<feBlend mode="normal" in="SourceGraphic" in2="effect1_dropShadow_3168_110" result="shape"/>
</filter>
<clipPath id="clip0_3168_110">
<rect width="144" height="144" fill="white"/>
</clipPath>
</defs>
</svg>
