<svg width="250" height="250" viewBox="0 0 250 250" fill="none" xmlns="http://www.w3.org/2000/svg">
<path d="M216.753 135.823H33.2508C27.4304 135.823 22.6952 131.088 22.6952 125.267C22.6952 119.447 27.43 114.712 33.2508 114.712H216.753C222.574 114.712 227.309 119.447 227.309 125.268C227.309 131.088 222.574 135.823 216.753 135.823ZM33.2508 119.512C30.0772 119.512 27.4952 122.094 27.4952 125.268C27.4952 128.441 30.0772 131.023 33.2508 131.023H216.753C219.927 131.023 222.509 128.441 222.509 125.268C222.509 122.094 219.927 119.512 216.753 119.512H33.2508ZM125.002 103.2C93.5852 103.2 61.7068 98.2852 30.2524 88.592C27.502 87.7444 25.252 85.872 23.9176 83.3196C22.5824 80.7656 22.3284 77.8472 23.2024 75.102C24.976 69.5332 30.9688 66.4008 36.562 68.1196C95.2468 86.1524 154.758 86.1524 213.442 68.1196C219.037 66.4008 225.028 69.5332 226.802 75.102C227.676 77.8472 227.422 80.766 226.087 83.3196C224.752 85.872 222.502 87.7444 219.752 88.5924C188.297 98.2856 156.419 103.2 125.002 103.2ZM33.4232 72.4472C30.9136 72.4472 28.5728 74.0568 27.7764 76.558C27.5369 77.3025 27.4485 78.0873 27.5163 78.8664C27.5841 79.6455 27.8067 80.4032 28.1712 81.0952C28.5308 81.7882 29.0251 82.4026 29.6252 82.9021C30.2254 83.4017 30.9192 83.7764 31.666 84.0044C62.662 93.5568 94.0648 98.4 125.002 98.4C155.939 98.4 187.342 93.5568 218.338 84.0044C219.085 83.7764 219.779 83.4016 220.379 82.9019C220.979 82.4023 221.473 81.7879 221.833 81.0948C222.198 80.4029 222.42 79.6452 222.488 78.8662C222.556 78.0871 222.467 77.3024 222.228 76.558C221.249 73.4856 217.941 71.7592 214.852 72.7072C155.232 91.0276 94.772 91.0276 35.152 72.7072C34.578 72.5312 33.996 72.4472 33.4232 72.4472ZM216.57 182.886C215.509 182.886 214.455 182.728 213.442 182.416C154.757 164.383 95.2468 164.383 36.562 182.416C30.9676 184.134 24.9756 181.001 23.2024 175.433C22.328 172.688 22.582 169.77 23.9172 167.216C25.2516 164.663 27.5012 162.79 30.252 161.943C61.7076 152.249 93.586 147.334 125.002 147.334C156.418 147.334 188.296 152.249 219.751 161.943C222.502 162.791 224.752 164.664 226.087 167.216C227.422 169.77 227.676 172.688 226.802 175.434C225.358 179.967 221.115 182.886 216.57 182.886ZM125.002 164.087C155.026 164.087 185.038 168.666 214.852 177.828C217.939 178.776 221.25 177.049 222.228 173.976C222.467 173.232 222.556 172.447 222.488 171.668C222.42 170.889 222.197 170.132 221.833 169.44C221.473 168.747 220.979 168.132 220.379 167.633C219.778 167.133 219.084 166.758 218.338 166.53C187.341 156.978 155.938 152.135 125.002 152.135C94.0656 152.135 62.6628 156.978 31.666 166.53C30.9191 166.758 30.2252 167.133 29.625 167.633C29.0249 168.132 28.5304 168.747 28.1708 169.44C27.8064 170.132 27.5839 170.889 27.5161 171.668C27.4483 172.447 27.5366 173.232 27.776 173.976C28.7544 177.049 32.0628 178.776 35.152 177.828C64.9588 168.668 94.9856 164.087 125.002 164.087Z" fill="#151515"/>
<path d="M125 67.9965C124.633 67.9965 124.271 67.9126 123.942 67.7511C123.613 67.5896 123.326 67.3549 123.101 67.0649L104.751 43.3397C104.477 42.9847 104.308 42.56 104.263 42.1137C104.217 41.6673 104.298 41.2173 104.496 40.8145C104.694 40.4118 105 40.0725 105.381 39.8352C105.762 39.5979 106.201 39.4719 106.65 39.4717H114.815V25.3609C114.815 24.7244 115.067 24.114 115.517 23.6639C115.968 23.2138 116.578 22.9609 117.215 22.9609H132.785C133.422 22.9609 134.032 23.2138 134.482 23.6639C134.932 24.114 135.185 24.7244 135.185 25.3609V39.4713H143.35C143.799 39.4712 144.239 39.597 144.62 39.8343C145 40.0715 145.307 40.4109 145.505 40.8137C145.703 41.2165 145.783 41.6667 145.738 42.1132C145.693 42.5596 145.523 42.9844 145.249 43.3393L126.898 67.0645C126.674 67.3546 126.386 67.5894 126.057 67.7509C125.728 67.9125 125.366 67.9965 125 67.9965ZM111.54 44.2717L125 61.6737L138.459 44.2717H132.785C132.148 44.2717 131.538 44.0189 131.088 43.5688C130.638 43.1187 130.385 42.5083 130.385 41.8717V27.7609H119.614V41.8713C119.614 42.5079 119.361 43.1183 118.911 43.5684C118.461 44.0185 117.851 44.2713 117.214 44.2713H111.54V44.2717ZM132.785 227.032H117.215C116.578 227.032 115.968 226.779 115.517 226.329C115.067 225.879 114.815 225.269 114.815 224.632V210.522H106.65C106.201 210.522 105.761 210.396 105.381 210.159C105 209.921 104.693 209.582 104.495 209.179C104.298 208.776 104.217 208.326 104.262 207.88C104.307 207.433 104.477 207.009 104.751 206.654L123.101 182.929C123.326 182.639 123.613 182.404 123.942 182.242C124.271 182.081 124.633 181.997 125 181.997C125.366 181.997 125.728 182.081 126.057 182.242C126.386 182.404 126.674 182.639 126.898 182.929L145.249 206.654C145.523 207.009 145.692 207.433 145.738 207.88C145.783 208.326 145.702 208.776 145.504 209.179C145.307 209.582 145 209.921 144.619 210.159C144.238 210.396 143.799 210.522 143.35 210.522H135.185V224.632C135.185 225.269 134.932 225.879 134.482 226.329C134.032 226.779 133.422 227.032 132.785 227.032ZM119.615 222.232H130.385V208.122C130.385 207.485 130.638 206.875 131.088 206.425C131.538 205.975 132.149 205.722 132.785 205.722H138.46L125 188.319L111.54 205.722H117.215C117.851 205.722 118.461 205.975 118.912 206.425C119.362 206.875 119.615 207.485 119.615 208.122V222.232Z" fill="#151515"/>
</svg>
