<svg width="250" height="250" viewBox="0 0 250 250" fill="none" xmlns="http://www.w3.org/2000/svg">
<g clip-path="url(#clip0_3172_280)">
<path d="M127.915 151.3C127.52 150.468 126.811 149.826 125.943 149.517C125.075 149.208 124.12 149.256 123.288 149.651C120.458 150.993 117.518 152.093 114.502 152.937C113.884 153.11 113.327 153.45 112.891 153.921C112.455 154.391 112.158 154.973 112.032 155.601L108.357 173.974C108.179 174.856 107.702 175.649 107.006 176.22C106.31 176.791 105.438 177.103 104.538 177.105H94.5141C93.6142 177.103 92.7426 176.791 92.0467 176.22C91.3509 175.649 90.8734 174.856 90.695 173.974L87.0203 155.601C86.8947 154.973 86.5974 154.391 86.1615 153.921C85.7255 153.451 85.168 153.11 84.5505 152.937C80.2965 151.747 76.2007 150.05 72.3513 147.883C71.7923 147.568 71.1572 147.414 70.5162 147.438C69.8752 147.462 69.2533 147.663 68.7195 148.019L53.1279 158.413C51.5888 159.439 49.522 159.234 48.2131 157.926L41.125 150.838C39.8166 149.529 39.6125 147.462 40.6382 145.923L51.0323 130.331C51.3883 129.797 51.5894 129.176 51.6135 128.535C51.6375 127.893 51.4835 127.258 51.1685 126.699C49.0013 122.85 47.3042 118.754 46.1137 114.5C45.941 113.883 45.6007 113.325 45.1305 112.889C44.6602 112.453 44.0784 112.156 43.4496 112.03L25.077 108.356C24.195 108.177 23.4016 107.7 22.8311 107.004C22.2605 106.308 21.9479 105.436 21.9459 104.537V94.5124C21.9479 93.6125 22.2605 92.7409 22.8311 92.045C23.4016 91.3491 24.195 90.8716 25.077 90.6933L43.4496 87.0186C44.0784 86.8929 44.66 86.5957 45.1303 86.1597C45.6005 85.7238 45.9408 85.1662 46.1137 84.5488C47.3043 80.2947 49.0014 76.199 51.1685 72.3495C51.4833 71.7906 51.6372 71.1555 51.6131 70.5144C51.5891 69.8734 51.388 69.2516 51.0323 68.7178L40.639 53.1279C40.1416 52.378 39.9183 51.4793 40.007 50.5838C40.0957 49.6883 40.491 48.8509 41.1259 48.2131L48.214 41.125C49.5224 39.8166 51.5896 39.6125 53.1288 40.6382L68.7204 51.0323C69.2541 51.3882 69.876 51.5893 70.517 51.6133C71.1581 51.6374 71.7932 51.4834 72.3521 51.1685C76.2016 49.0014 80.2973 47.3043 84.5514 46.1137C85.1689 45.941 85.7266 45.6007 86.1625 45.1305C86.5985 44.6602 86.8957 44.0784 87.0212 43.4496L90.6959 25.077C90.8742 24.195 91.3517 23.4016 92.0476 22.8311C92.7435 22.2605 93.6151 21.9479 94.515 21.9459H104.539C105.439 21.9479 106.311 22.2605 107.006 22.8311C107.702 23.4016 108.18 24.195 108.358 25.077L112.033 43.4496C112.159 44.0784 112.456 44.66 112.892 45.1303C113.328 45.6005 113.885 45.9408 114.503 46.1137C118.757 47.3043 122.853 49.0014 126.702 51.1685C127.261 51.4833 127.896 51.6372 128.537 51.6131C129.178 51.5891 129.8 51.388 130.334 51.0323L145.925 40.6382C147.464 39.6121 149.531 39.817 150.84 41.125L157.928 48.2131C159.237 49.5215 159.441 51.5883 158.415 53.1279L148.021 68.7195C147.665 69.2532 147.464 69.8751 147.44 70.5161C147.416 71.1572 147.57 71.7924 147.885 72.3513C150.052 76.2007 151.749 80.2965 152.94 84.5505C153.112 85.1681 153.453 85.7257 153.923 86.1617C154.393 86.5976 154.975 86.8948 155.604 87.0203L173.976 90.695C174.858 90.8734 175.652 91.3509 176.222 92.0467C176.793 92.7426 177.105 93.6142 177.107 94.5141V104.538C177.105 105.438 176.793 106.31 176.222 107.006C175.652 107.702 174.858 108.179 173.976 108.357L155.604 112.032C154.975 112.158 154.393 112.455 153.923 112.891C153.453 113.327 153.112 113.885 152.94 114.503C152.074 117.594 150.941 120.603 149.554 123.498C149.356 123.909 149.242 124.355 149.217 124.811C149.192 125.266 149.257 125.722 149.408 126.152C149.56 126.583 149.794 126.979 150.098 127.319C150.403 127.658 150.771 127.935 151.183 128.132C151.594 128.329 152.04 128.444 152.495 128.469C152.951 128.494 153.407 128.429 153.837 128.278C154.267 128.126 154.664 127.892 155.003 127.587C155.343 127.283 155.619 126.914 155.817 126.503C157.069 123.891 158.137 121.195 159.014 118.435L175.339 115.17C180.387 114.159 184.052 109.688 184.052 104.538V94.5137C184.052 89.3634 180.387 84.8925 175.337 83.8819L159.013 80.6171C157.942 77.2466 156.586 73.9735 154.959 70.8336L164.194 56.9809C167.051 52.6956 166.481 46.9421 162.839 43.3001L155.751 36.212C152.109 32.5699 146.355 32.001 142.07 34.8571L128.218 44.092C125.077 42.4651 121.804 41.109 118.434 40.0383L115.169 23.7145C114.16 18.6652 109.689 15 104.538 15H94.5141C89.3639 15 84.893 18.6652 83.8823 23.7158L80.6176 40.0396C77.247 41.1101 73.974 42.4662 70.834 44.0933L56.9822 34.8584C52.6973 32.0019 46.9434 32.5708 43.3014 36.2132L36.2132 43.3014C32.5716 46.9434 32.0019 52.6965 34.8584 56.9822L44.0933 70.8349C42.4663 73.9749 41.1102 77.2479 40.0396 80.6184L23.7154 83.8832C18.6652 84.893 15 89.3643 15 94.5145V104.539C15 109.689 18.6652 114.16 23.7158 115.17L40.0396 118.435C41.11 121.806 42.4662 125.079 44.0933 128.219L34.8584 142.071C32.0019 146.357 32.5712 152.11 36.2132 155.752L43.3014 162.84C46.9434 166.482 52.6969 167.051 56.9822 164.195L70.8349 154.96C73.9749 156.587 77.2479 157.944 80.6184 159.014L83.8832 175.339C84.893 180.388 89.3643 184.053 94.5145 184.053H104.539C109.689 184.053 114.16 180.388 115.17 175.337L118.435 159.014C121.113 158.163 123.729 157.132 126.268 155.928C126.68 155.733 127.049 155.458 127.355 155.119C127.661 154.781 127.897 154.385 128.05 153.955C128.203 153.526 128.27 153.07 128.247 152.614C128.224 152.159 128.111 151.712 127.915 151.3Z" fill="#151515"/>
<path d="M129.615 118.825C130.021 119.033 130.463 119.159 130.918 119.196C131.373 119.233 131.83 119.18 132.264 119.04C132.699 118.901 133.101 118.677 133.449 118.381C133.796 118.086 134.082 117.725 134.29 117.319C137.092 111.856 138.573 105.702 138.573 99.5236C138.573 77.9932 121.057 60.4766 99.5262 60.4766C89.2833 60.4766 79.6042 64.4134 72.2711 71.5629C71.6221 72.2083 71.2541 73.0837 71.247 73.9989C71.2399 74.9142 71.5942 75.7952 72.2331 76.4506C72.872 77.106 73.7437 77.4827 74.6588 77.499C75.5739 77.5153 76.4584 77.1697 77.1201 76.5374C83.1482 70.661 91.1052 67.4242 99.5253 67.4242C117.225 67.4242 131.625 81.8239 131.625 99.524C131.625 104.678 130.442 109.598 128.108 114.15C127.688 114.969 127.611 115.922 127.893 116.799C128.176 117.676 128.795 118.404 129.615 118.825ZM67.0109 84.6598C66.5796 84.5114 66.1232 84.4493 65.6679 84.4773C65.2126 84.5052 64.7673 84.6225 64.3573 84.8226C63.9474 85.0227 63.5808 85.3015 63.2787 85.6433C62.9765 85.985 62.7446 86.3829 62.5963 86.8143C61.191 90.9039 60.476 95.1988 60.4805 99.5231C60.4805 121.054 77.9971 138.57 99.5275 138.57C107.808 138.57 115.719 136.011 122.407 131.168C123.136 130.621 123.621 129.81 123.757 128.909C123.894 128.008 123.671 127.089 123.136 126.351C122.602 125.613 121.799 125.114 120.9 124.963C120.002 124.811 119.079 125.018 118.332 125.54C112.837 129.519 106.335 131.622 99.527 131.622C81.8269 131.622 67.4272 117.222 67.4272 99.5223C67.4272 95.9413 68.0116 92.4251 69.1649 89.0731C69.3133 88.6419 69.3754 88.1857 69.3475 87.7305C69.3195 87.2753 69.2022 86.8301 69.0022 86.4202C68.8021 86.0104 68.5233 85.644 68.1817 85.3419C67.84 85.0399 67.4421 84.8081 67.0109 84.6598ZM228.315 166.812L218.27 164.803C217.658 162.983 216.922 161.207 216.067 159.487L221.75 150.963C223.941 147.676 223.505 143.263 220.711 140.47L216.054 135.812C213.26 133.019 208.847 132.582 205.561 134.773L197.036 140.456C195.317 139.601 193.54 138.865 191.72 138.253L189.711 128.209C188.936 124.335 185.507 121.524 181.557 121.524H174.969C171.02 121.524 167.59 124.335 166.815 128.209L164.806 138.253C162.986 138.865 161.21 139.601 159.49 140.456L150.966 134.773C147.679 132.582 143.266 133.019 140.473 135.812L135.815 140.47C133.022 143.263 132.585 147.676 134.776 150.963L140.459 159.487C139.283 161.852 138.333 164.324 137.621 166.868C137.392 167.749 137.519 168.684 137.972 169.473C138.426 170.262 139.171 170.841 140.048 171.086C140.924 171.331 141.862 171.223 142.659 170.784C143.457 170.345 144.05 169.611 144.312 168.74C145.068 166.036 146.147 163.433 147.524 160.987C147.839 160.428 147.993 159.793 147.969 159.152C147.945 158.511 147.744 157.889 147.388 157.355L140.557 147.109C140.382 146.846 140.304 146.53 140.335 146.215C140.366 145.901 140.505 145.606 140.728 145.382L145.386 140.725C145.61 140.502 145.904 140.363 146.219 140.332C146.533 140.301 146.849 140.379 147.113 140.554L157.359 147.384C157.892 147.74 158.514 147.941 159.155 147.965C159.796 147.989 160.432 147.835 160.99 147.521C163.437 146.143 166.04 145.065 168.743 144.308C169.361 144.135 169.918 143.795 170.354 143.325C170.79 142.855 171.088 142.273 171.213 141.644L173.628 129.571C173.69 129.261 173.858 128.983 174.103 128.782C174.347 128.582 174.653 128.472 174.969 128.471H181.557C181.873 128.472 182.179 128.582 182.424 128.782C182.668 128.983 182.836 129.261 182.899 129.571L185.313 141.645C185.439 142.274 185.736 142.855 186.172 143.326C186.608 143.796 187.166 144.136 187.783 144.309C190.487 145.065 193.09 146.144 195.536 147.521C196.095 147.836 196.73 147.99 197.371 147.966C198.012 147.942 198.634 147.741 199.168 147.385L209.414 140.554C209.677 140.38 209.993 140.301 210.308 140.332C210.622 140.363 210.916 140.502 211.141 140.725L215.798 145.383C216.021 145.607 216.16 145.902 216.191 146.216C216.222 146.531 216.144 146.847 215.969 147.11L209.139 157.356C208.783 157.89 208.581 158.512 208.557 159.153C208.533 159.794 208.687 160.429 209.002 160.988C210.38 163.434 211.458 166.037 212.215 168.741C212.387 169.358 212.728 169.916 213.198 170.352C213.668 170.788 214.25 171.085 214.879 171.21L226.952 173.625C227.262 173.688 227.54 173.855 227.741 174.1C227.941 174.344 228.051 174.651 228.052 174.967V181.554C228.051 181.87 227.941 182.177 227.741 182.421C227.54 182.666 227.262 182.833 226.952 182.896L214.878 185.311C214.249 185.436 213.668 185.734 213.197 186.17C212.727 186.605 212.387 187.163 212.214 187.781C211.457 190.484 210.379 193.087 209.002 195.533C208.687 196.092 208.533 196.727 208.557 197.368C208.581 198.009 208.782 198.631 209.138 199.165L215.969 209.411C216.143 209.674 216.222 209.99 216.191 210.305C216.159 210.62 216.021 210.914 215.797 211.138L211.14 215.796C210.916 216.019 210.621 216.158 210.307 216.189C209.992 216.22 209.676 216.141 209.413 215.967L199.167 209.136C198.633 208.78 198.011 208.579 197.37 208.555C196.729 208.531 196.094 208.685 195.535 209C193.089 210.377 190.486 211.456 187.782 212.212C187.165 212.385 186.607 212.725 186.171 213.195C185.735 213.666 185.438 214.247 185.312 214.876L182.898 226.949C182.835 227.259 182.668 227.538 182.423 227.738C182.179 227.939 181.872 228.048 181.556 228.049H174.969C174.652 228.048 174.346 227.938 174.102 227.738C173.857 227.538 173.689 227.259 173.627 226.949L171.212 214.875C171.087 214.247 170.789 213.665 170.353 213.195C169.917 212.724 169.36 212.384 168.742 212.211C166.039 211.455 163.436 210.376 160.99 208.999C160.431 208.684 159.795 208.53 159.154 208.554C158.513 208.578 157.892 208.779 157.358 209.135L147.112 215.966C146.848 216.141 146.533 216.219 146.218 216.188C145.903 216.157 145.609 216.018 145.385 215.795L140.727 211.137C140.504 210.913 140.366 210.619 140.334 210.304C140.303 209.989 140.382 209.674 140.556 209.41L147.387 199.164C147.743 198.631 147.944 198.009 147.968 197.368C147.992 196.727 147.838 196.091 147.523 195.533C146.146 193.086 145.067 190.483 144.311 187.78C144.138 187.162 143.798 186.604 143.328 186.168C142.857 185.733 142.276 185.435 141.647 185.31L129.574 182.895C129.264 182.833 128.985 182.665 128.785 182.42C128.584 182.176 128.474 181.87 128.474 181.553V174.966C128.475 174.65 128.585 174.344 128.785 174.099C128.985 173.855 129.264 173.687 129.574 173.624L130.313 173.476C130.76 173.387 131.186 173.21 131.565 172.956C131.944 172.702 132.269 172.376 132.522 171.997C132.775 171.617 132.951 171.192 133.039 170.744C133.128 170.296 133.127 169.836 133.038 169.389C132.661 167.507 130.833 166.289 128.949 166.664L128.21 166.812C124.338 167.587 121.526 171.016 121.526 174.966V181.554C121.526 185.504 124.338 188.933 128.211 189.708L138.256 191.717C138.868 193.537 139.604 195.314 140.459 197.033L134.776 205.558C132.584 208.845 133.021 213.258 135.815 216.051L140.472 220.708C143.266 223.502 147.679 223.938 150.965 221.747L159.49 216.064C161.209 216.919 162.986 217.655 164.806 218.267L166.815 228.312C167.59 232.185 171.02 234.997 174.97 234.997H181.557C185.507 234.997 188.937 232.185 189.712 228.312L191.72 218.267C193.541 217.655 195.317 216.919 197.037 216.064L205.561 221.747C208.848 223.938 213.261 223.501 216.054 220.708L220.712 216.05C223.505 213.257 223.942 208.844 221.751 205.557L216.068 197.033C216.923 195.313 217.659 193.537 218.27 191.716L228.315 189.708C232.188 188.933 235 185.504 235 181.553V174.966C235 171.016 232.189 167.587 228.315 166.812Z" fill="#151515"/>
<path d="M178.263 165.754C185.159 165.754 190.769 171.364 190.769 178.26C190.769 179.181 191.135 180.064 191.786 180.716C192.437 181.367 193.321 181.733 194.242 181.733C195.164 181.733 196.047 181.367 196.698 180.716C197.35 180.064 197.716 179.181 197.716 178.26C197.716 167.533 188.989 158.807 178.263 158.807C167.537 158.807 158.81 167.533 158.81 178.26C158.81 188.986 167.537 197.712 178.263 197.712C182.608 197.712 186.717 196.311 190.148 193.661C190.861 193.092 191.322 192.266 191.431 191.36C191.54 190.454 191.288 189.542 190.731 188.82C190.173 188.099 189.354 187.625 188.45 187.502C187.546 187.379 186.63 187.616 185.9 188.163C183.696 189.865 181.056 190.765 178.263 190.765C171.367 190.765 165.758 185.155 165.758 178.26C165.758 171.364 171.368 165.754 178.263 165.754ZM120.69 99.5228C120.69 87.8533 111.196 78.3594 99.5267 78.3594C87.8572 78.3594 78.3633 87.8538 78.3633 99.5228C78.3633 111.192 87.8572 120.686 99.5267 120.686C111.196 120.686 120.69 111.192 120.69 99.5228ZM85.3105 99.5228C85.3105 91.6844 91.6883 85.3066 99.5267 85.3066C107.365 85.3066 113.743 91.6844 113.743 99.5228C113.743 107.361 107.365 113.739 99.5267 113.739C91.6875 113.739 85.3105 107.361 85.3105 99.5228Z" fill="#151515"/>
</g>
<defs>
<clipPath id="clip0_3172_280">
<rect width="220" height="220" fill="white" transform="translate(15 15)"/>
</clipPath>
</defs>
</svg>
