<svg width="144" height="144" viewBox="0 0 144 144" fill="none" xmlns="http://www.w3.org/2000/svg">
<g clip-path="url(#clip0_3168_150)">
<g filter="url(#filter0_d_3168_150)">
<path d="M116 4H28C19.1634 4 12 11.1634 12 20V108C12 116.837 19.1634 124 28 124H116C124.837 124 132 116.837 132 108V20C132 11.1634 124.837 4 116 4Z" fill="#F5FAFF"/>
<path d="M72.7215 75.3484V38.7594C72.7215 38.3881 72.574 38.032 72.3114 37.7694C72.0489 37.5069 71.6928 37.3594 71.3215 37.3594C70.9502 37.3594 70.5941 37.5069 70.3315 37.7694C70.069 38.032 69.9215 38.3881 69.9215 38.7594V75.3484C68.3825 75.6719 67.0014 76.5143 66.0095 77.7346C65.0175 78.9549 64.475 80.479 64.4727 82.0516C64.4727 85.8274 67.5443 88.899 71.3215 88.899C75.0987 88.899 78.1689 85.8274 78.1689 82.0516C78.1666 80.4792 77.6243 78.9553 76.6326 77.735C75.6409 76.5147 74.2602 75.6722 72.7215 75.3484ZM71.3215 86.1004C69.0885 86.1004 67.2727 84.2832 67.2727 82.0516C67.2727 79.82 69.0885 78.0028 71.3215 78.0028C73.5545 78.0028 75.3689 79.8186 75.3689 82.0516C75.3689 84.2846 73.5531 86.1004 71.3215 86.1004ZM82.2401 65.2082H84.7517C85.123 65.2082 85.4791 65.0607 85.7416 64.7981C86.0042 64.5356 86.1517 64.1795 86.1517 63.8082C86.1517 63.4369 86.0042 63.0808 85.7416 62.8182C85.4791 62.5557 85.123 62.4082 84.7517 62.4082H82.2401C81.8688 62.4082 81.5127 62.5557 81.2501 62.8182C80.9876 63.0808 80.8401 63.4369 80.8401 63.8082C80.8401 64.1795 80.9876 64.5356 81.2501 64.7981C81.5127 65.0607 81.8688 65.2082 82.2401 65.2082ZM82.2401 57.4634H86.8769C87.2482 57.4634 87.6043 57.3159 87.8668 57.0533C88.1294 56.7908 88.2769 56.4347 88.2769 56.0634C88.2769 55.6921 88.1294 55.336 87.8668 55.0734C87.6043 54.8109 87.2482 54.6634 86.8769 54.6634H82.2401C81.8688 54.6634 81.5127 54.8109 81.2501 55.0734C80.9876 55.336 80.8401 55.6921 80.8401 56.0634C80.8401 56.4347 80.9876 56.7908 81.2501 57.0533C81.5127 57.3159 81.8688 57.4634 82.2401 57.4634ZM82.2401 49.7172H84.7517C85.123 49.7172 85.4791 49.5697 85.7416 49.3071C86.0042 49.0446 86.1517 48.6885 86.1517 48.3172C86.1517 47.9459 86.0042 47.5898 85.7416 47.3272C85.4791 47.0647 85.123 46.9172 84.7517 46.9172H82.2401C81.8688 46.9172 81.5127 47.0647 81.2501 47.3272C80.9876 47.5898 80.8401 47.9459 80.8401 48.3172C80.8401 48.6885 80.9876 49.0446 81.2501 49.3071C81.5127 49.5697 81.8688 49.7172 82.2401 49.7172ZM82.2401 41.9724H86.8769C87.2482 41.9724 87.6043 41.8249 87.8668 41.5623C88.1294 41.2998 88.2769 40.9437 88.2769 40.5724C88.2769 40.2011 88.1294 39.845 87.8668 39.5824C87.6043 39.3199 87.2482 39.1724 86.8769 39.1724H82.2401C81.8688 39.1724 81.5127 39.3199 81.2501 39.5824C80.9876 39.845 80.8401 40.2011 80.8401 40.5724C80.8401 40.9437 80.9876 41.2998 81.2501 41.5623C81.5127 41.8249 81.8688 41.9724 82.2401 41.9724Z" fill="#00539E"/>
<path d="M71.3218 30.3984C69.2173 30.401 67.1997 31.2382 65.7116 32.7263C64.2235 34.2144 63.3863 36.2319 63.3838 38.3364V68.6002C58.6476 71.4002 55.7188 76.4332 55.7188 81.9884C55.7188 90.5956 62.7132 97.5984 71.312 97.5984C79.9191 97.5984 86.9233 90.5956 86.9233 81.9884C86.9279 79.2835 86.2226 76.6247 84.8778 74.2778C83.5329 71.9309 81.5957 69.978 79.2598 68.6142V38.3364C79.2572 36.2319 78.42 34.2144 76.9319 32.7263C75.4438 31.2382 73.4262 30.401 71.3218 30.3984ZM84.1233 81.9884C84.1233 89.0528 78.3764 94.7984 71.312 94.7984C64.2588 94.7984 58.5187 89.0528 58.5187 81.9884C58.5187 77.1864 61.1647 72.8324 65.4277 70.6246C65.8617 70.4006 66.1838 69.8098 66.1838 69.3828V38.3364C66.1838 35.5028 68.4882 33.1984 71.3218 33.1984C74.1554 33.1984 76.4598 35.5028 76.4598 38.3364V69.3996C76.4598 69.8224 76.7719 70.4146 77.2199 70.6456C79.3056 71.7147 81.0546 73.3404 82.273 75.3424C83.4915 77.3445 84.1319 79.6448 84.1233 81.9884Z" fill="#00539E"/>
</g>
</g>
<defs>
<filter id="filter0_d_3168_150" x="-4" y="-4" width="152" height="152" filterUnits="userSpaceOnUse" color-interpolation-filters="sRGB">
<feFlood flood-opacity="0" result="BackgroundImageFix"/>
<feColorMatrix in="SourceAlpha" type="matrix" values="0 0 0 0 0 0 0 0 0 0 0 0 0 0 0 0 0 0 127 0" result="hardAlpha"/>
<feOffset dy="8"/>
<feGaussianBlur stdDeviation="8"/>
<feComposite in2="hardAlpha" operator="out"/>
<feColorMatrix type="matrix" values="0 0 0 0 0.0823529 0 0 0 0 0.0823529 0 0 0 0 0.0823529 0 0 0 0.1 0"/>
<feBlend mode="normal" in2="BackgroundImageFix" result="effect1_dropShadow_3168_150"/>
<feBlend mode="normal" in="SourceGraphic" in2="effect1_dropShadow_3168_150" result="shape"/>
</filter>
<clipPath id="clip0_3168_150">
<rect width="144" height="144" fill="white"/>
</clipPath>
</defs>
</svg>
