<svg width="144" height="144" viewBox="0 0 144 144" fill="none" xmlns="http://www.w3.org/2000/svg">
<g clip-path="url(#clip0_3168_124)">
<g filter="url(#filter0_d_3168_124)">
<path d="M116 4H28C19.1634 4 12 11.1634 12 20V108C12 116.837 19.1634 124 28 124H116C124.837 124 132 116.837 132 108V20C132 11.1634 124.837 4 116 4Z" fill="#F5FAFF"/>
<path fill-rule="evenodd" clip-rule="evenodd" d="M42.9211 31.8241C42.7193 31.6151 42.4779 31.4485 42.211 31.3338C41.9442 31.2192 41.6571 31.1589 41.3667 31.1563C41.0762 31.1538 40.7882 31.2092 40.5193 31.3191C40.2505 31.4291 40.0063 31.5916 39.8009 31.797C39.5955 32.0023 39.433 32.2466 39.3231 32.5154C39.2131 32.7843 39.1577 33.0723 39.1602 33.3628C39.1628 33.6532 39.2231 33.9403 39.3378 34.2071C39.4524 34.474 39.619 34.7154 39.828 34.9172L52.032 47.1213C44.6273 49.16 39.187 55.9423 39.187 63.9956C39.187 73.66 47.0216 81.4956 56.687 81.4956H56.9167C61.0577 85.7153 71.4964 95.9419 71.4964 95.9419C77.1708 98.6806 84.0308 94.6173 84.0308 88.0723V79.12L101.078 96.1672C101.28 96.3761 101.521 96.5428 101.788 96.6574C102.055 96.7721 102.342 96.8324 102.632 96.8349C102.923 96.8374 103.211 96.7821 103.48 96.6721C103.749 96.5621 103.993 96.3997 104.198 96.1943C104.404 95.9889 104.566 95.7447 104.676 95.4758C104.786 95.207 104.841 94.919 104.839 94.6285C104.836 94.338 104.776 94.051 104.661 93.7841C104.547 93.5172 104.38 93.2759 104.171 93.0741L42.9211 31.8241ZM79.6558 74.745L55.8098 50.8991C48.9706 51.3519 43.562 57.0416 43.562 63.9956C43.562 71.2439 49.4388 77.1206 56.687 77.1206H57.8377C58.1296 77.1207 58.4186 77.1791 58.6876 77.2926C58.9566 77.406 59.2001 77.5722 59.4039 77.7813C64.118 82.6156 73.7036 92.1356 73.7036 92.1356C76.4817 93.2272 79.6558 91.1917 79.6558 88.0723V74.745Z" fill="#00539E"/>
<path d="M79.6548 39.9154V63.0865L84.0298 67.4615V39.9154C84.0298 33.3704 77.1688 29.3071 71.4955 32.0459C71.4955 32.0459 64.7755 38.6292 59.9805 43.411L63.0572 46.4888C66.0103 43.5062 68.9864 40.5454 71.9614 37.5846L71.9713 37.5759L73.7027 35.8521C76.4808 34.7606 79.6548 36.796 79.6548 39.9154ZM88.8773 72.309L91.9902 75.4218C97.7083 68.494 97.402 58.0902 91.0714 51.5343C90.8718 51.3277 90.6334 51.1624 90.3698 51.0479C90.1063 50.9335 89.8228 50.872 89.5356 50.8671C89.2483 50.8621 88.9629 50.9138 88.6956 51.0192C88.4283 51.1246 88.1844 51.2816 87.9777 51.4813C87.7711 51.6809 87.6059 51.9193 87.4914 52.1828C87.3769 52.4463 87.3154 52.7298 87.3105 53.0171C87.3056 53.3044 87.3573 53.5898 87.4627 53.8571C87.568 54.1244 87.725 54.3683 87.9247 54.5749C88.542 55.2136 89.0934 55.9128 89.5708 56.6618C92.6059 61.4273 92.3752 67.7852 88.8773 72.309Z" fill="#00539E"/>
<path d="M95.7361 79.1659L98.8763 82.305C107.816 69.9675 106.659 52.719 95.4091 41.6514C95.2043 41.4499 94.9618 41.2908 94.6955 41.1831C94.4292 41.0753 94.1442 41.0211 93.857 41.0235C93.2768 41.0283 92.7223 41.2634 92.3154 41.6771C91.9086 42.0907 91.6828 42.6491 91.6876 43.2292C91.6924 43.8094 91.9275 44.3639 92.3411 44.7708C96.8654 49.1869 99.6864 55.0578 100.307 61.3496C100.929 67.6413 99.3097 73.9504 95.7361 79.1659Z" fill="#00539E"/>
</g>
</g>
<defs>
<filter id="filter0_d_3168_124" x="-4" y="-4" width="152" height="152" filterUnits="userSpaceOnUse" color-interpolation-filters="sRGB">
<feFlood flood-opacity="0" result="BackgroundImageFix"/>
<feColorMatrix in="SourceAlpha" type="matrix" values="0 0 0 0 0 0 0 0 0 0 0 0 0 0 0 0 0 0 127 0" result="hardAlpha"/>
<feOffset dy="8"/>
<feGaussianBlur stdDeviation="8"/>
<feComposite in2="hardAlpha" operator="out"/>
<feColorMatrix type="matrix" values="0 0 0 0 0.0823529 0 0 0 0 0.0823529 0 0 0 0 0.0823529 0 0 0 0.1 0"/>
<feBlend mode="normal" in2="BackgroundImageFix" result="effect1_dropShadow_3168_124"/>
<feBlend mode="normal" in="SourceGraphic" in2="effect1_dropShadow_3168_124" result="shape"/>
</filter>
<clipPath id="clip0_3168_124">
<rect width="144" height="144" fill="white"/>
</clipPath>
</defs>
</svg>
