<svg width="250" height="250" viewBox="0 0 250 250" fill="none" xmlns="http://www.w3.org/2000/svg">
<path fill-rule="evenodd" clip-rule="evenodd" d="M152.47 144.72V36.47C152.47 23.52 141.94 13 128.97 13H124C111.03 13 100.49 23.52 100.49 36.47V144.72C86.97 153.32 78 168.39 78 185.56C78 212.31 99.71 234 126.5 234C153.29 234 175 212.31 175 185.56C175 168.39 166 153.32 152.51 144.72H152.47Z" stroke="#151515" stroke-width="8.02083" stroke-miterlimit="10" stroke-linecap="round" stroke-linejoin="round"/>
<path fill-rule="evenodd" clip-rule="evenodd" d="M139.58 152.43V93C135.52 94.68 131.11 95.62 126.47 95.62C121.83 95.62 117.38 94.68 113.36 93V152.43C100.83 157.6 92 169.97 92 184.41C92 203.5 107.43 219 126.5 219C145.57 219 161 203.53 161 184.41C161 169.97 152.17 157.6 139.64 152.43H139.58Z" stroke="#151515" stroke-width="8.02083" stroke-miterlimit="10" stroke-linecap="round" stroke-linejoin="round"/>
</svg>
