<svg width="250" height="250" viewBox="0 0 250 250" fill="none" xmlns="http://www.w3.org/2000/svg">
<path d="M198.457 98.1352C201.493 107.809 202.579 117.99 201.653 128.087C200.727 138.184 197.807 147.997 193.062 156.958C179.267 183.188 152.395 198.203 124.624 198.203C112.529 198.203 100.264 195.352 88.8283 189.339C79.8414 184.645 71.8751 178.215 65.3908 170.42C58.9064 162.626 54.0329 153.623 51.0525 143.932C45.2317 125.209 46.7717 105.423 55.1867 87.8318L44.5442 92.0027C43.4269 92.3862 42.2048 92.3236 41.1326 91.8279C40.0604 91.3322 39.221 90.4417 38.7895 89.3421C38.3579 88.2426 38.3676 87.0189 38.8164 85.9262C39.2652 84.8336 40.1185 83.9564 41.1983 83.4777L62.0617 75.2873C63.565 74.6914 65.2471 74.7831 66.6679 75.5348C68.0887 76.2818 69.1108 77.6156 69.4775 79.1968L74.5467 101.014C74.7023 101.606 74.7375 102.224 74.6503 102.83C74.5631 103.436 74.3553 104.019 74.039 104.544C73.7228 105.068 73.3046 105.524 72.8091 105.885C72.3137 106.245 71.751 106.502 71.1545 106.641C70.5579 106.78 69.9395 106.798 69.3358 106.695C68.7321 106.591 68.1553 106.367 67.6396 106.036C67.124 105.705 66.6798 105.275 66.3334 104.769C65.987 104.264 65.7454 103.695 65.6229 103.094L63.1433 92.4289C55.9685 107.701 54.7779 125.107 59.8067 141.214C62.4338 149.754 66.7292 157.688 72.4442 164.556C78.1591 171.424 85.1799 177.091 93.1 181.226C126.288 198.68 167.488 185.883 184.95 152.686C189.131 144.79 191.704 136.143 192.52 127.246C193.336 118.348 192.378 109.378 189.703 100.853C187.076 92.3132 182.781 84.3792 177.067 77.5103C171.353 70.6413 164.333 64.9739 156.414 60.836C148.373 56.5895 139.557 54.0081 130.495 53.246C129.883 53.2131 129.283 53.0575 128.731 52.7883C128.18 52.5192 127.688 52.1421 127.285 51.6793C126.882 51.2166 126.576 50.6776 126.385 50.0944C126.194 49.5112 126.123 48.8956 126.174 48.2841C126.226 47.6726 126.4 47.0777 126.685 46.5347C126.971 45.9917 127.363 45.5116 127.838 45.1228C128.313 44.7341 128.861 44.4447 129.45 44.2717C130.038 44.0988 130.656 44.0458 131.265 44.116C141.564 44.9823 151.46 47.8743 160.681 52.7235C169.668 57.4192 177.634 63.8506 184.118 71.6456C190.602 79.4405 195.476 88.4441 198.457 98.1352ZM119.101 120.781C119.1 121.404 119.226 122.02 119.472 122.592C119.717 123.164 120.076 123.68 120.527 124.109L137.833 140.536C138.269 140.952 138.783 141.278 139.345 141.495C139.907 141.711 140.507 141.815 141.109 141.799C141.711 141.783 142.305 141.649 142.855 141.403C143.405 141.157 143.901 140.804 144.314 140.366C144.729 139.929 145.054 139.415 145.271 138.853C145.487 138.29 145.59 137.691 145.574 137.088C145.559 136.486 145.424 135.892 145.179 135.342C144.933 134.792 144.582 134.295 144.145 133.881L128.273 118.815V93.9552C128.273 92.7396 127.79 91.5738 126.93 90.7143C126.071 89.8547 124.905 89.3718 123.689 89.3718C122.474 89.3718 121.308 89.8547 120.448 90.7143C119.589 91.5738 119.106 92.7396 119.106 93.9552L119.101 120.781Z" fill="#151515"/>
</svg>
