<svg width="250" height="250" viewBox="0 0 250 250" fill="none" xmlns="http://www.w3.org/2000/svg">
<path d="M129 31V65" stroke="#151515" stroke-width="8.02083" stroke-miterlimit="10" stroke-linecap="round" stroke-linejoin="round"/>
<path d="M118 38L129.24 52L141 38" stroke="#151515" stroke-width="8.02083" stroke-miterlimit="10" stroke-linecap="round" stroke-linejoin="round"/>
<path d="M130 119V85" stroke="#151515" stroke-width="8.02083" stroke-miterlimit="10" stroke-linecap="round" stroke-linejoin="round"/>
<path d="M141 112L129.76 99L118 112" stroke="#151515" stroke-width="8.02083" stroke-miterlimit="10" stroke-linecap="round" stroke-linejoin="round"/>
<path d="M91 97L121 80" stroke="#151515" stroke-width="8.02083" stroke-miterlimit="10" stroke-linecap="round" stroke-linejoin="round"/>
<path d="M103.05 103L109 86.66L92 83" stroke="#151515" stroke-width="8.02083" stroke-miterlimit="10" stroke-linecap="round" stroke-linejoin="round"/>
<path d="M168 53L138 70" stroke="#151515" stroke-width="8.02083" stroke-miterlimit="10" stroke-linecap="round" stroke-linejoin="round"/>
<path d="M155.95 47L150 63.3L167 67" stroke="#151515" stroke-width="8.02083" stroke-miterlimit="10" stroke-linecap="round" stroke-linejoin="round"/>
<path d="M91 53L121 71" stroke="#151515" stroke-width="8.02083" stroke-miterlimit="10" stroke-linecap="round" stroke-linejoin="round"/>
<path d="M92 67L109 63.76L103.17 47" stroke="#151515" stroke-width="8.02083" stroke-miterlimit="10" stroke-linecap="round" stroke-linejoin="round"/>
<path d="M169 97L140 82" stroke="#151515" stroke-width="8.02083" stroke-miterlimit="10" stroke-linecap="round" stroke-linejoin="round"/>
<path d="M167 83L150 86.24L155.83 103" stroke="#151515" stroke-width="8.02083" stroke-miterlimit="10" stroke-linecap="round" stroke-linejoin="round"/>
<path fill-rule="evenodd" clip-rule="evenodd" d="M140 75C140 80.52 135.52 85 130 85C124.48 85 120 80.52 120 75C120 69.48 124.48 65 130 65C135.52 65 140 69.48 140 75Z" stroke="#151515" stroke-width="8.02083" stroke-miterlimit="10" stroke-linecap="round" stroke-linejoin="round"/>
<path d="M189.63 218C189.87 218.86 190 219.76 190 220.66C189.43 226.96 184.27 231.56 178.47 230.94C173.46 230.41 169.49 226.1 169 220.66C169 219.76 169.13 218.86 169.37 218" stroke="#151515" stroke-width="8.02083" stroke-miterlimit="10" stroke-linecap="round" stroke-linejoin="round"/>
<path d="M63.3301 218C63.1201 218.86 63.01 219.74 63 220.63C63.23 226.61 67.92 231.24 73.46 230.99C73.47 230.99 73.48 230.99 73.48 230.99C79 231.27 83.69 226.72 84 220.78C84 219.89 83.8699 219 83.6299 218.14" stroke="#151515" stroke-width="8.02083" stroke-miterlimit="10" stroke-linecap="round" stroke-linejoin="round"/>
<path fill-rule="evenodd" clip-rule="evenodd" d="M54 18H199V216H54V18Z" stroke="#151515" stroke-width="8.02083" stroke-miterlimit="10" stroke-linecap="round" stroke-linejoin="round"/>
<path d="M199 134H54" stroke="#151515" stroke-width="8.02083" stroke-miterlimit="10" stroke-linecap="round" stroke-linejoin="round"/>
<path d="M130 135V216" stroke="#151515" stroke-width="8.02083" stroke-miterlimit="10" stroke-linecap="round" stroke-linejoin="round"/>
<path d="M143 155H183" stroke="#151515" stroke-width="8.02083" stroke-miterlimit="10" stroke-linecap="round" stroke-linejoin="round"/>
<path d="M143 175H183" stroke="#151515" stroke-width="8.02083" stroke-miterlimit="10" stroke-linecap="round" stroke-linejoin="round"/>
<path d="M143 195H183" stroke="#151515" stroke-width="8.02083" stroke-miterlimit="10" stroke-linecap="round" stroke-linejoin="round"/>
<path d="M110 155H70" stroke="#151515" stroke-width="8.02083" stroke-miterlimit="10" stroke-linecap="round" stroke-linejoin="round"/>
<path d="M110 175H70" stroke="#151515" stroke-width="8.02083" stroke-miterlimit="10" stroke-linecap="round" stroke-linejoin="round"/>
<path d="M110 195H70" stroke="#151515" stroke-width="8.02083" stroke-miterlimit="10" stroke-linecap="round" stroke-linejoin="round"/>
</svg>
