<svg width="144" height="144" viewBox="0 0 144 144" fill="none" xmlns="http://www.w3.org/2000/svg">
<g clip-path="url(#clip0_3168_96)">
<g filter="url(#filter0_d_3168_96)">
<path d="M116 4H28C19.1634 4 12 11.1634 12 20V108C12 116.837 19.1634 124 28 124H116C124.837 124 132 116.837 132 108V20C132 11.1634 124.837 4 116 4Z" fill="#F5FAFF"/>
<g clip-path="url(#clip1_3168_96)">
<path d="M83.2082 58.0932C82.9048 58.0322 82.5896 58.0943 82.332 58.2657C82.0744 58.4371 81.8954 58.7039 81.8345 59.0073C81.7735 59.3107 81.8356 59.6258 82.007 59.8835C82.1784 60.1411 82.4452 60.3201 82.7486 60.381C95.8584 63.0153 104.667 70.0948 104.667 77.9976C104.667 88.29 90.0123 96.6643 72.0001 96.6643C53.988 96.6643 39.3334 88.29 39.3334 77.9976C39.3334 70.0946 48.1418 63.0153 61.2516 60.381C61.555 60.3201 61.8217 60.1411 61.9931 59.8835C62.1646 59.6258 62.2266 59.3107 62.1657 59.0073C62.1047 58.7039 61.9258 58.4371 61.6681 58.2657C61.4105 58.0943 61.0953 58.0322 60.7919 58.0932C46.5666 60.9526 37 68.9514 37 77.9976C37 89.5768 52.7011 98.9976 72 98.9976C91.2989 98.9976 107 89.5768 107 77.9976C107 68.9514 97.4391 60.9526 83.2082 58.0932Z" fill="#00539E"/>
<path d="M62.5513 62.6235C51.9896 64.8367 45.168 70.4157 45.168 76.8323C45.168 85.3374 56.9513 91.9991 72.0013 91.9991C87.0513 91.9991 98.8347 85.3374 98.8347 76.8324C98.8347 70.4158 92.0133 64.8367 81.4513 62.6237C81.3002 62.5888 81.1435 62.5845 80.9906 62.6109C80.8378 62.6374 80.6917 62.6941 80.561 62.7776C80.4302 62.8612 80.3175 62.9701 80.2294 63.0977C80.1412 63.2254 80.0794 63.3694 80.0476 63.5213C80.0158 63.6731 80.0146 63.8298 80.0441 63.9821C80.0735 64.1345 80.1331 64.2794 80.2193 64.4084C80.3054 64.5374 80.4165 64.648 80.5459 64.7336C80.6753 64.8192 80.8205 64.8781 80.973 64.9069C90.2631 66.854 96.5013 71.6467 96.5013 76.8326C96.5013 83.7883 85.2815 89.666 72.0013 89.666C58.7212 89.666 47.5013 83.788 47.5013 76.8324C47.5013 71.6466 53.7396 66.8539 63.0238 64.9067C63.1763 64.8779 63.3215 64.819 63.4509 64.7334C63.5803 64.6479 63.6914 64.5373 63.7775 64.4083C63.8637 64.2793 63.9233 64.1343 63.9528 63.982C63.9822 63.8297 63.981 63.673 63.9492 63.5211C63.9174 63.3693 63.8556 63.2253 63.7675 63.0976C63.6793 62.9699 63.5666 62.8611 63.4359 62.7775C63.3051 62.6939 63.1591 62.6373 63.0062 62.6108C62.8533 62.5844 62.6967 62.5887 62.5455 62.6235H62.5513Z" fill="#00539E"/>
<path d="M64.2987 67.1951C57.532 68.7864 53.332 72.2585 53.332 76.2531C53.332 81.8135 61.5313 86.1697 71.9987 86.1697C82.466 86.1697 90.6653 81.8135 90.6653 76.2531C90.6653 72.2585 86.4653 68.7865 79.6987 67.1951C79.4992 67.1483 79.291 67.1548 79.0948 67.2139C78.8987 67.2731 78.7216 67.3828 78.5812 67.5321C78.4409 67.6813 78.3423 67.8649 78.2954 68.0643C78.2485 68.2637 78.2548 68.4719 78.3138 68.6681C78.3729 68.8643 78.4826 69.0415 78.6319 69.1818C78.7812 69.3222 78.9649 69.4208 79.1644 69.4676C84.6477 70.758 88.332 73.4844 88.332 76.253C88.332 80.3632 80.8526 83.8364 71.9987 83.8364C63.1447 83.8364 55.6653 80.3633 55.6653 76.2531C55.6653 73.4846 59.3496 70.7581 64.834 69.4678C64.9833 69.4327 65.1241 69.3686 65.2486 69.279C65.373 69.1895 65.4786 69.0764 65.5593 68.946C65.6401 68.8157 65.6943 68.6707 65.719 68.5194C65.7436 68.3681 65.7383 68.2134 65.7032 68.0642C65.6681 67.915 65.604 67.7741 65.5144 67.6497C65.4249 67.5252 65.3118 67.4196 65.1814 67.3389C65.0511 67.2582 64.9061 67.204 64.7548 67.1793C64.6035 67.1546 64.4488 67.16 64.2996 67.1951H64.2987Z" fill="#00539E"/>
<path d="M66.6695 74.0137C66.8689 73.9603 67.0506 73.8549 67.196 73.7082C67.3413 73.5616 67.4452 73.3791 67.4969 73.1792C67.5486 72.9793 67.5464 72.7693 67.4904 72.5706C67.4344 72.3718 67.3267 72.1915 67.1782 72.0481C67.0298 71.9046 66.846 71.803 66.6455 71.7538C66.4451 71.7045 66.2351 71.7094 66.0371 71.7678C63.1111 72.5903 61.5 73.9751 61.5 75.6667C61.5 78.7305 66.7814 80.3334 72 80.3334C77.2186 80.3334 82.5 78.7303 82.5 75.6667C82.5 73.9751 80.8888 72.5903 77.9629 71.7678C77.8145 71.7234 77.6588 71.7089 77.5048 71.7253C77.3509 71.7416 77.2017 71.7885 77.066 71.8631C76.9303 71.9377 76.8108 72.0386 76.7145 72.1598C76.6182 72.281 76.547 72.4203 76.505 72.5693C76.4631 72.7183 76.4512 72.8743 76.4701 73.0279C76.489 73.1816 76.5383 73.33 76.6151 73.4645C76.692 73.5989 76.7948 73.7167 76.9176 73.811C77.0404 73.9053 77.1808 73.9742 77.3305 74.0137C79.4737 74.6169 80.1668 75.388 80.1668 75.6669C80.1668 76.3447 77.305 78.0003 72.0001 78.0003C66.6953 78.0003 63.8335 76.3447 63.8335 75.6669C63.8334 75.388 64.5263 74.6167 66.6695 74.0137Z" fill="#00539E"/>
<path d="M82.7163 47.5173C82.5021 47.2037 82.2146 46.9471 81.8787 46.7698C81.5429 46.5926 81.1688 46.4999 80.789 46.5H76.6649V33.6666C76.6648 31.0893 74.5754 29 71.9981 29C69.4208 29 67.3315 31.0893 67.3315 33.6666V46.5H63.2074C62.8273 46.4995 62.4529 46.5919 62.1166 46.7692C61.7804 46.9464 61.4925 47.203 61.278 47.5168C61.0636 47.8306 60.929 48.1921 60.8861 48.5697C60.8431 48.9474 60.893 49.3298 61.0315 49.6838L69.8224 72.1479C69.9936 72.5846 70.2925 72.9595 70.68 73.2238C71.0675 73.4881 71.5257 73.6294 71.9947 73.6294C72.4638 73.6294 72.9219 73.4881 73.3094 73.2238C73.6969 72.9595 73.9958 72.5846 74.167 72.1479L82.9649 49.6838C83.103 49.3297 83.1526 48.9473 83.1093 48.5697C83.0659 48.1922 82.9311 47.8309 82.7163 47.5173ZM71.9981 71.2987L63.2073 48.8334H68.4981C68.8075 48.8334 69.1043 48.7105 69.3231 48.4917C69.5418 48.2729 69.6648 47.9762 69.6648 47.6668V33.6668C69.6648 32.378 70.7094 31.3334 71.9981 31.3334C73.2868 31.3334 74.3315 32.378 74.3315 33.6668V47.6668C74.3315 47.9762 74.4544 48.2729 74.6732 48.4917C74.892 48.7105 75.1887 48.8334 75.4981 48.8334H80.7901L71.9981 71.2987Z" fill="#00539E"/>
</g>
</g>
</g>
<defs>
<filter id="filter0_d_3168_96" x="-4" y="-4" width="152" height="152" filterUnits="userSpaceOnUse" color-interpolation-filters="sRGB">
<feFlood flood-opacity="0" result="BackgroundImageFix"/>
<feColorMatrix in="SourceAlpha" type="matrix" values="0 0 0 0 0 0 0 0 0 0 0 0 0 0 0 0 0 0 127 0" result="hardAlpha"/>
<feOffset dy="8"/>
<feGaussianBlur stdDeviation="8"/>
<feComposite in2="hardAlpha" operator="out"/>
<feColorMatrix type="matrix" values="0 0 0 0 0.0823529 0 0 0 0 0.0823529 0 0 0 0 0.0823529 0 0 0 0.1 0"/>
<feBlend mode="normal" in2="BackgroundImageFix" result="effect1_dropShadow_3168_96"/>
<feBlend mode="normal" in="SourceGraphic" in2="effect1_dropShadow_3168_96" result="shape"/>
</filter>
<clipPath id="clip0_3168_96">
<rect width="144" height="144" fill="white"/>
</clipPath>
<clipPath id="clip1_3168_96">
<rect width="70" height="70" fill="white" transform="translate(37 29)"/>
</clipPath>
</defs>
</svg>
